<!-- Generated by IcoMoon.io -->
<svg version="1.1" xmlns="http://www.w3.org/2000/svg" width="53" height="32" viewBox="0 0 53 32">
<title>ua-logo</title>
<path d="M43.413 16c5.813-2.56 9.653-6.4 9.813-10.667 0 0-1.547-1.173-6.507-3.040-4.373-1.6-7.68-1.973-7.68-1.973v9.493c0 1.44-0.587 2.88-1.653 4.16-3.307-0.8-6.933-1.227-10.72-1.227-3.84 0-7.467 0.427-10.773 1.227-1.067-1.28-1.653-2.72-1.653-4.16v-9.493c0 0-3.307 0.373-7.68 1.973-4.96 1.867-6.453 3.040-6.453 3.040 0.213 4.267 4 8.107 9.867 10.667-5.867 2.56-9.653 6.4-9.867 10.667 0 0 1.547 1.173 6.507 3.040 4.373 1.6 7.68 1.973 7.68 1.973v-9.493c0-1.44 0.587-2.88 1.653-4.16 3.307 0.8 6.933 1.227 10.72 1.227 3.84 0 7.467-0.427 10.773-1.227 1.067 1.28 1.653 2.72 1.653 4.16v9.493c0 0 3.307-0.373 7.68-1.973 4.96-1.813 6.453-3.040 6.453-3.040-0.213-4.267-4-8.107-9.813-10.667v0zM26.667 18.133h-0.107c-3.467 0-6.24-0.853-8.32-2.133 2.080-1.28 4.853-2.133 8.32-2.133h0.213c3.467 0 6.24 0.853 8.32 2.133-2.080 1.28-4.853 2.133-8.32 2.133h-0.107z"></path>
</svg>
